<svg xmlns="http://www.w3.org/2000/svg" width="420" height="377" role="img" aria-label="OPENZOO · THIS REPO’S SECURITY SCAN">
  <rect width="420" height="377" rx="10" fill="#0e0e11"/>
  <rect width="420" height="377" rx="10" fill="none" stroke="#33333d"/>

  <text x="16" y="26" font-family="ui-monospace,SFMono-Regular,Menlo,monospace" font-size="11" fill="#b8f22d" letter-spacing="0.06em">OPENZOO · THIS REPO’S SECURITY SCAN</text>

  <text x="16" y="62" font-family="ui-monospace,SFMono-Regular,Menlo,monospace" font-size="26" font-weight="600" fill="#b8f22d">saved $137.10</text>
  <text x="404" y="62" text-anchor="end" font-family="ui-monospace,SFMono-Regular,Menlo,monospace" font-size="26" font-weight="600" fill="#b8f22d">2.88x</text>
  <text x="16" y="84" font-family="ui-monospace,SFMono-Regular,Menlo,monospace" font-size="10.5" fill="#8a8a95">vs buying the same tokens direct</text>

  <rect x="16" y="108" width="135" height="18" rx="3" fill="#b8f22d" opacity="0.85"/>
  <text x="22" y="121" font-family="ui-monospace,SFMono-Regular,Menlo,monospace" font-size="11" fill="#0e0e11" font-weight="600">dev spent</text>
  <text x="404" y="121" text-anchor="end" font-family="ui-monospace,SFMono-Regular,Menlo,monospace" font-size="12" fill="#e6e6e6">$72.84</text>

  <rect x="16" y="134" width="388" height="18" rx="3" fill="#ff9955" opacity="0.85"/>
  <text x="22" y="147" font-family="ui-monospace,SFMono-Regular,Menlo,monospace" font-size="11" fill="#0e0e11" font-weight="600">buying direct</text>
  <text x="404" y="147" text-anchor="end" font-family="ui-monospace,SFMono-Regular,Menlo,monospace" font-size="12" fill="#ff9955">$209.94</text>

  <text x="16" y="180" font-family="ui-monospace,SFMono-Regular,Menlo,monospace" font-size="11" fill="#8a8a95">protocol&#8217;s cost (cogs)</text>
  <text x="404" y="180" text-anchor="end" font-family="ui-monospace,SFMono-Regular,Menlo,monospace" font-size="12" fill="#e6e6e6">$48.48</text>

  <line x1="16" y1="190" x2="404" y2="190" stroke="#33333d"/>
  <text x="16" y="202" font-family="ui-monospace,SFMono-Regular,Menlo,monospace" font-size="11" fill="#8a8a95">paid calls</text>
  <text x="404" y="202" text-anchor="end" font-family="ui-monospace,SFMono-Regular,Menlo,monospace" font-size="11" fill="#e6e6e6">687</text>
  <text x="16" y="221" font-family="ui-monospace,SFMono-Regular,Menlo,monospace" font-size="11" fill="#8a8a95">repos scanned</text>
  <text x="404" y="221" text-anchor="end" font-family="ui-monospace,SFMono-Regular,Menlo,monospace" font-size="11" fill="#e6e6e6">8 / 34</text>
  <text x="16" y="240" font-family="ui-monospace,SFMono-Regular,Menlo,monospace" font-size="11" fill="#8a8a95">findings</text>
  <text x="404" y="240" text-anchor="end" font-family="ui-monospace,SFMono-Regular,Menlo,monospace" font-size="11" fill="#e6e6e6">1</text>
  <g transform="translate(0, 255)">
  <path d="M16.0,78.0 L24.4,78.0 L32.9,76.9 L41.3,76.1 L49.7,74.8 L58.2,74.8 L66.6,73.7 L75.0,77.6 L83.5,77.0 L91.9,76.0 L100.3,75.1 L108.8,73.9 L117.2,72.5 L125.7,71.1 L134.1,69.4 L142.5,67.4 L151.0,65.7 L159.4,63.6 L167.8,62.0 L176.3,60.2 L184.7,57.6 L193.1,54.8 L201.6,52.7 L210.0,51.3 L218.4,49.6 L226.9,48.5 L235.3,47.9 L243.7,44.8 L252.2,42.6 L260.6,40.3 L269.0,38.1 L277.5,36.8 L285.9,35.8 L294.3,33.9 L302.8,31.8 L311.2,29.4 L319.7,27.0 L328.1,26.1 L336.5,24.6 L345.0,24.5 L353.4,24.2 L361.8,22.2 L370.3,19.6 L378.7,17.1 L387.1,15.2 L395.6,13.4 L404.0,12.0 L404.0,55.1 L395.6,55.7 L387.1,56.3 L378.7,57.0 L370.3,57.7 L361.8,58.4 L353.4,59.1 L345.0,59.1 L336.5,59.2 L328.1,59.6 L319.7,59.9 L311.2,60.6 L302.8,61.4 L294.3,62.1 L285.9,62.9 L277.5,63.3 L269.0,63.8 L260.6,64.7 L252.2,65.7 L243.7,66.4 L235.3,67.2 L226.9,67.4 L218.4,67.7 L210.0,68.1 L201.6,68.5 L193.1,69.0 L184.7,69.6 L176.3,70.2 L167.8,70.7 L159.4,71.1 L151.0,71.7 L142.5,72.3 L134.1,73.0 L125.7,73.7 L117.2,74.3 L108.8,75.1 L100.3,75.8 L91.9,76.4 L83.5,77.1 L75.0,77.8 L66.6,75.3 L58.2,75.9 L49.7,76.0 L41.3,77.0 L32.9,77.7 L24.4,78.0 L16.0,78.0 Z" fill="#b8f22d" opacity="0.13"/>
  <path d="M16.0,78.0 L24.4,78.0 L32.9,76.9 L41.3,76.1 L49.7,74.8 L58.2,74.8 L66.6,73.7 L75.0,77.6 L83.5,77.0 L91.9,76.0 L100.3,75.1 L108.8,73.9 L117.2,72.5 L125.7,71.1 L134.1,69.4 L142.5,67.4 L151.0,65.7 L159.4,63.6 L167.8,62.0 L176.3,60.2 L184.7,57.6 L193.1,54.8 L201.6,52.7 L210.0,51.3 L218.4,49.6 L226.9,48.5 L235.3,47.9 L243.7,44.8 L252.2,42.6 L260.6,40.3 L269.0,38.1 L277.5,36.8 L285.9,35.8 L294.3,33.9 L302.8,31.8 L311.2,29.4 L319.7,27.0 L328.1,26.1 L336.5,24.6 L345.0,24.5 L353.4,24.2 L361.8,22.2 L370.3,19.6 L378.7,17.1 L387.1,15.2 L395.6,13.4 L404.0,12.0" fill="none" stroke="#ff9955" stroke-width="1.6"/>
  <path d="M16.0,78.0 L24.4,78.0 L32.9,77.7 L41.3,77.0 L49.7,76.0 L58.2,75.9 L66.6,75.3 L75.0,77.8 L83.5,77.1 L91.9,76.4 L100.3,75.8 L108.8,75.1 L117.2,74.3 L125.7,73.7 L134.1,73.0 L142.5,72.3 L151.0,71.7 L159.4,71.1 L167.8,70.7 L176.3,70.2 L184.7,69.6 L193.1,69.0 L201.6,68.5 L210.0,68.1 L218.4,67.7 L226.9,67.4 L235.3,67.2 L243.7,66.4 L252.2,65.7 L260.6,64.7 L269.0,63.8 L277.5,63.3 L285.9,62.9 L294.3,62.1 L302.8,61.4 L311.2,60.6 L319.7,59.9 L328.1,59.6 L336.5,59.2 L345.0,59.1 L353.4,59.1 L361.8,58.4 L370.3,57.7 L378.7,57.0 L387.1,56.3 L395.6,55.7 L404.0,55.1" fill="none" stroke="#b8f22d" stroke-width="1.6"/>
  <text x="16" y="95" font-family="ui-monospace,SFMono-Regular,Menlo,monospace" font-size="9.5" fill="#8a8a95">47 samples · the shaded gap is what leCore saved</text>
  </g>
</svg>
