<svg xmlns="http://www.w3.org/2000/svg" width="420" height="377" role="img" aria-label="OPENZOO · THIS REPO’S SECURITY SCAN">
  <rect width="420" height="377" rx="10" fill="#0e0e11"/>
  <rect width="420" height="377" rx="10" fill="none" stroke="#33333d"/>

  <text x="16" y="26" font-family="ui-monospace,SFMono-Regular,Menlo,monospace" font-size="11" fill="#b8f22d" letter-spacing="0.06em">OPENZOO · THIS REPO’S SECURITY SCAN</text>

  <text x="16" y="62" font-family="ui-monospace,SFMono-Regular,Menlo,monospace" font-size="26" font-weight="600" fill="#b8f22d">saved $143.25</text>
  <text x="404" y="62" text-anchor="end" font-family="ui-monospace,SFMono-Regular,Menlo,monospace" font-size="26" font-weight="600" fill="#b8f22d">2.85x</text>
  <text x="16" y="84" font-family="ui-monospace,SFMono-Regular,Menlo,monospace" font-size="10.5" fill="#8a8a95">vs buying the same tokens direct</text>

  <rect x="16" y="108" width="136" height="18" rx="3" fill="#b8f22d" opacity="0.85"/>
  <text x="22" y="121" font-family="ui-monospace,SFMono-Regular,Menlo,monospace" font-size="11" fill="#0e0e11" font-weight="600">dev spent</text>
  <text x="404" y="121" text-anchor="end" font-family="ui-monospace,SFMono-Regular,Menlo,monospace" font-size="12" fill="#e6e6e6">$77.35</text>

  <rect x="16" y="134" width="388" height="18" rx="3" fill="#ff9955" opacity="0.85"/>
  <text x="22" y="147" font-family="ui-monospace,SFMono-Regular,Menlo,monospace" font-size="11" fill="#0e0e11" font-weight="600">buying direct</text>
  <text x="404" y="147" text-anchor="end" font-family="ui-monospace,SFMono-Regular,Menlo,monospace" font-size="12" fill="#ff9955">$220.60</text>

  <text x="16" y="180" font-family="ui-monospace,SFMono-Regular,Menlo,monospace" font-size="11" fill="#8a8a95">protocol&#8217;s cost (cogs)</text>
  <text x="404" y="180" text-anchor="end" font-family="ui-monospace,SFMono-Regular,Menlo,monospace" font-size="12" fill="#e6e6e6">$51.49</text>

  <line x1="16" y1="190" x2="404" y2="190" stroke="#33333d"/>
  <text x="16" y="202" font-family="ui-monospace,SFMono-Regular,Menlo,monospace" font-size="11" fill="#8a8a95">paid calls</text>
  <text x="404" y="202" text-anchor="end" font-family="ui-monospace,SFMono-Regular,Menlo,monospace" font-size="11" fill="#e6e6e6">730</text>
  <text x="16" y="221" font-family="ui-monospace,SFMono-Regular,Menlo,monospace" font-size="11" fill="#8a8a95">repos scanned</text>
  <text x="404" y="221" text-anchor="end" font-family="ui-monospace,SFMono-Regular,Menlo,monospace" font-size="11" fill="#e6e6e6">9 / 34</text>
  <text x="16" y="240" font-family="ui-monospace,SFMono-Regular,Menlo,monospace" font-size="11" fill="#8a8a95">findings</text>
  <text x="404" y="240" text-anchor="end" font-family="ui-monospace,SFMono-Regular,Menlo,monospace" font-size="11" fill="#e6e6e6">3</text>
  <g transform="translate(0, 255)">
  <path d="M16.0,78.0 L23.5,78.0 L30.9,77.0 L38.4,76.2 L45.8,75.0 L53.3,74.9 L60.8,73.9 L68.2,77.7 L75.7,77.0 L83.2,76.1 L90.6,75.3 L98.1,74.1 L105.5,72.7 L113.0,71.4 L120.5,69.8 L127.9,67.9 L135.4,66.3 L142.8,64.3 L150.3,62.8 L157.8,61.1 L165.2,58.6 L172.7,55.9 L180.2,53.9 L187.6,52.6 L195.1,51.0 L202.5,49.9 L210.0,49.3 L217.5,46.4 L224.9,44.3 L232.4,42.1 L239.8,40.1 L247.3,38.8 L254.8,37.8 L262.2,36.0 L269.7,34.0 L277.2,31.8 L284.6,29.5 L292.1,28.6 L299.5,27.2 L307.0,27.1 L314.5,26.8 L321.9,24.9 L329.4,22.5 L336.8,20.0 L344.3,18.2 L351.8,16.6 L359.2,15.2 L366.7,13.3 L374.2,12.0 L381.6,12.0 L389.1,12.0 L396.5,12.0 L404.0,12.0 L404.0,54.9 L396.5,54.9 L389.1,54.9 L381.6,54.9 L374.2,54.9 L366.7,55.5 L359.2,56.2 L351.8,56.8 L344.3,57.4 L336.8,58.0 L329.4,58.7 L321.9,59.4 L314.5,60.0 L307.0,60.1 L299.5,60.1 L292.1,60.5 L284.6,60.8 L277.2,61.5 L269.7,62.2 L262.2,62.9 L254.8,63.6 L247.3,64.0 L239.8,64.5 L232.4,65.4 L224.9,66.3 L217.5,67.0 L210.0,67.7 L202.5,67.9 L195.1,68.2 L187.6,68.6 L180.2,68.9 L172.7,69.4 L165.2,70.0 L157.8,70.6 L150.3,71.1 L142.8,71.4 L135.4,72.0 L127.9,72.6 L120.5,73.3 L113.0,73.9 L105.5,74.5 L98.1,75.2 L90.6,75.9 L83.2,76.5 L75.7,77.2 L68.2,77.8 L60.8,75.5 L53.3,76.0 L45.8,76.1 L38.4,77.0 L30.9,77.7 L23.5,78.0 L16.0,78.0 Z" fill="#b8f22d" opacity="0.13"/>
  <path d="M16.0,78.0 L23.5,78.0 L30.9,77.0 L38.4,76.2 L45.8,75.0 L53.3,74.9 L60.8,73.9 L68.2,77.7 L75.7,77.0 L83.2,76.1 L90.6,75.3 L98.1,74.1 L105.5,72.7 L113.0,71.4 L120.5,69.8 L127.9,67.9 L135.4,66.3 L142.8,64.3 L150.3,62.8 L157.8,61.1 L165.2,58.6 L172.7,55.9 L180.2,53.9 L187.6,52.6 L195.1,51.0 L202.5,49.9 L210.0,49.3 L217.5,46.4 L224.9,44.3 L232.4,42.1 L239.8,40.1 L247.3,38.8 L254.8,37.8 L262.2,36.0 L269.7,34.0 L277.2,31.8 L284.6,29.5 L292.1,28.6 L299.5,27.2 L307.0,27.1 L314.5,26.8 L321.9,24.9 L329.4,22.5 L336.8,20.0 L344.3,18.2 L351.8,16.6 L359.2,15.2 L366.7,13.3 L374.2,12.0 L381.6,12.0 L389.1,12.0 L396.5,12.0 L404.0,12.0" fill="none" stroke="#ff9955" stroke-width="1.6"/>
  <path d="M16.0,78.0 L23.5,78.0 L30.9,77.7 L38.4,77.0 L45.8,76.1 L53.3,76.0 L60.8,75.5 L68.2,77.8 L75.7,77.2 L83.2,76.5 L90.6,75.9 L98.1,75.2 L105.5,74.5 L113.0,73.9 L120.5,73.3 L127.9,72.6 L135.4,72.0 L142.8,71.4 L150.3,71.1 L157.8,70.6 L165.2,70.0 L172.7,69.4 L180.2,68.9 L187.6,68.6 L195.1,68.2 L202.5,67.9 L210.0,67.7 L217.5,67.0 L224.9,66.3 L232.4,65.4 L239.8,64.5 L247.3,64.0 L254.8,63.6 L262.2,62.9 L269.7,62.2 L277.2,61.5 L284.6,60.8 L292.1,60.5 L299.5,60.1 L307.0,60.1 L314.5,60.0 L321.9,59.4 L329.4,58.7 L336.8,58.0 L344.3,57.4 L351.8,56.8 L359.2,56.2 L366.7,55.5 L374.2,54.9 L381.6,54.9 L389.1,54.9 L396.5,54.9 L404.0,54.9" fill="none" stroke="#b8f22d" stroke-width="1.6"/>
  <text x="16" y="95" font-family="ui-monospace,SFMono-Regular,Menlo,monospace" font-size="9.5" fill="#8a8a95">53 samples · the shaded gap is what leCore saved</text>
  </g>
</svg>
