<svg xmlns="http://www.w3.org/2000/svg" width="420" height="377" role="img" aria-label="OPENZOO · THIS REPO’S SECURITY SCAN">
  <rect width="420" height="377" rx="10" fill="#0e0e11"/>
  <rect width="420" height="377" rx="10" fill="none" stroke="#33333d"/>

  <text x="16" y="26" font-family="ui-monospace,SFMono-Regular,Menlo,monospace" font-size="11" fill="#b8f22d" letter-spacing="0.06em">OPENZOO · THIS REPO’S SECURITY SCAN</text>

  <text x="16" y="62" font-family="ui-monospace,SFMono-Regular,Menlo,monospace" font-size="26" font-weight="600" fill="#b8f22d">saved $104.58</text>
  <text x="404" y="62" text-anchor="end" font-family="ui-monospace,SFMono-Regular,Menlo,monospace" font-size="26" font-weight="600" fill="#b8f22d">2.82x</text>
  <text x="16" y="84" font-family="ui-monospace,SFMono-Regular,Menlo,monospace" font-size="10.5" fill="#8a8a95">vs buying the same tokens direct</text>

  <rect x="16" y="108" width="138" height="18" rx="3" fill="#b8f22d" opacity="0.85"/>
  <text x="22" y="121" font-family="ui-monospace,SFMono-Regular,Menlo,monospace" font-size="11" fill="#0e0e11" font-weight="600">dev spent</text>
  <text x="404" y="121" text-anchor="end" font-family="ui-monospace,SFMono-Regular,Menlo,monospace" font-size="12" fill="#e6e6e6">$57.58</text>

  <rect x="16" y="134" width="388" height="18" rx="3" fill="#ff9955" opacity="0.85"/>
  <text x="22" y="147" font-family="ui-monospace,SFMono-Regular,Menlo,monospace" font-size="11" fill="#0e0e11" font-weight="600">buying direct</text>
  <text x="404" y="147" text-anchor="end" font-family="ui-monospace,SFMono-Regular,Menlo,monospace" font-size="12" fill="#ff9955">$162.17</text>

  <text x="16" y="180" font-family="ui-monospace,SFMono-Regular,Menlo,monospace" font-size="11" fill="#8a8a95">protocol&#8217;s cost (cogs)</text>
  <text x="404" y="180" text-anchor="end" font-family="ui-monospace,SFMono-Regular,Menlo,monospace" font-size="12" fill="#e6e6e6">$38.35</text>

  <line x1="16" y1="190" x2="404" y2="190" stroke="#33333d"/>
  <text x="16" y="202" font-family="ui-monospace,SFMono-Regular,Menlo,monospace" font-size="11" fill="#8a8a95">paid calls</text>
  <text x="404" y="202" text-anchor="end" font-family="ui-monospace,SFMono-Regular,Menlo,monospace" font-size="11" fill="#e6e6e6">539</text>
  <text x="16" y="221" font-family="ui-monospace,SFMono-Regular,Menlo,monospace" font-size="11" fill="#8a8a95">repos scanned</text>
  <text x="404" y="221" text-anchor="end" font-family="ui-monospace,SFMono-Regular,Menlo,monospace" font-size="11" fill="#e6e6e6">1 / 34</text>
  <text x="16" y="240" font-family="ui-monospace,SFMono-Regular,Menlo,monospace" font-size="11" fill="#8a8a95">findings</text>
  <text x="404" y="240" text-anchor="end" font-family="ui-monospace,SFMono-Regular,Menlo,monospace" font-size="11" fill="#e6e6e6">1</text>
  <g transform="translate(0, 255)">
  <path d="M16.0,78.0 L26.8,78.0 L37.6,76.6 L48.3,75.5 L59.1,73.9 L69.9,73.8 L80.7,72.4 L91.4,77.5 L102.2,76.6 L113.0,75.5 L123.8,74.3 L134.6,72.7 L145.3,70.9 L156.1,69.0 L166.9,66.8 L177.7,64.3 L188.4,62.1 L199.2,59.4 L210.0,57.3 L220.8,55.0 L231.6,51.6 L242.3,48.0 L253.1,45.2 L263.9,43.4 L274.7,41.3 L285.4,39.8 L296.2,39.0 L307.0,35.1 L317.8,32.2 L328.6,29.1 L339.3,26.4 L350.1,24.6 L360.9,23.3 L371.7,20.9 L382.4,18.2 L393.2,15.1 L404.0,12.0 L404.0,54.6 L393.2,55.5 L382.4,56.5 L371.7,57.4 L360.9,58.4 L350.1,58.9 L339.3,59.7 L328.6,60.8 L317.8,62.0 L307.0,63.0 L296.2,64.1 L285.4,64.3 L274.7,64.7 L263.9,65.2 L253.1,65.6 L242.3,66.3 L231.6,67.1 L220.8,68.0 L210.0,68.6 L199.2,69.1 L188.4,69.8 L177.7,70.6 L166.9,71.6 L156.1,72.4 L145.3,73.3 L134.6,74.2 L123.8,75.2 L113.0,75.9 L102.2,76.9 L91.4,77.8 L80.7,74.5 L69.9,75.3 L59.1,75.4 L48.3,76.7 L37.6,77.7 L26.8,78.0 L16.0,78.0 Z" fill="#b8f22d" opacity="0.13"/>
  <path d="M16.0,78.0 L26.8,78.0 L37.6,76.6 L48.3,75.5 L59.1,73.9 L69.9,73.8 L80.7,72.4 L91.4,77.5 L102.2,76.6 L113.0,75.5 L123.8,74.3 L134.6,72.7 L145.3,70.9 L156.1,69.0 L166.9,66.8 L177.7,64.3 L188.4,62.1 L199.2,59.4 L210.0,57.3 L220.8,55.0 L231.6,51.6 L242.3,48.0 L253.1,45.2 L263.9,43.4 L274.7,41.3 L285.4,39.8 L296.2,39.0 L307.0,35.1 L317.8,32.2 L328.6,29.1 L339.3,26.4 L350.1,24.6 L360.9,23.3 L371.7,20.9 L382.4,18.2 L393.2,15.1 L404.0,12.0" fill="none" stroke="#ff9955" stroke-width="1.6"/>
  <path d="M16.0,78.0 L26.8,78.0 L37.6,77.7 L48.3,76.7 L59.1,75.4 L69.9,75.3 L80.7,74.5 L91.4,77.8 L102.2,76.9 L113.0,75.9 L123.8,75.2 L134.6,74.2 L145.3,73.3 L156.1,72.4 L166.9,71.6 L177.7,70.6 L188.4,69.8 L199.2,69.1 L210.0,68.6 L220.8,68.0 L231.6,67.1 L242.3,66.3 L253.1,65.6 L263.9,65.2 L274.7,64.7 L285.4,64.3 L296.2,64.1 L307.0,63.0 L317.8,62.0 L328.6,60.8 L339.3,59.7 L350.1,58.9 L360.9,58.4 L371.7,57.4 L382.4,56.5 L393.2,55.5 L404.0,54.6" fill="none" stroke="#b8f22d" stroke-width="1.6"/>
  <text x="16" y="95" font-family="ui-monospace,SFMono-Regular,Menlo,monospace" font-size="9.5" fill="#8a8a95">37 samples · the shaded gap is what leCore saved</text>
  </g>
</svg>
