<svg xmlns="http://www.w3.org/2000/svg" width="420" height="377" role="img" aria-label="OPENZOO · THIS REPO’S SECURITY SCAN">
  <rect width="420" height="377" rx="10" fill="#0e0e11"/>
  <rect width="420" height="377" rx="10" fill="none" stroke="#33333d"/>

  <text x="16" y="26" font-family="ui-monospace,SFMono-Regular,Menlo,monospace" font-size="11" fill="#b8f22d" letter-spacing="0.06em">OPENZOO · THIS REPO’S SECURITY SCAN</text>

  <text x="16" y="62" font-family="ui-monospace,SFMono-Regular,Menlo,monospace" font-size="26" font-weight="600" fill="#b8f22d">saved $143.25</text>
  <text x="404" y="62" text-anchor="end" font-family="ui-monospace,SFMono-Regular,Menlo,monospace" font-size="26" font-weight="600" fill="#b8f22d">2.85x</text>
  <text x="16" y="84" font-family="ui-monospace,SFMono-Regular,Menlo,monospace" font-size="10.5" fill="#8a8a95">vs buying the same tokens direct</text>

  <rect x="16" y="108" width="136" height="18" rx="3" fill="#b8f22d" opacity="0.85"/>
  <text x="22" y="121" font-family="ui-monospace,SFMono-Regular,Menlo,monospace" font-size="11" fill="#0e0e11" font-weight="600">dev spent</text>
  <text x="404" y="121" text-anchor="end" font-family="ui-monospace,SFMono-Regular,Menlo,monospace" font-size="12" fill="#e6e6e6">$77.35</text>

  <rect x="16" y="134" width="388" height="18" rx="3" fill="#ff9955" opacity="0.85"/>
  <text x="22" y="147" font-family="ui-monospace,SFMono-Regular,Menlo,monospace" font-size="11" fill="#0e0e11" font-weight="600">buying direct</text>
  <text x="404" y="147" text-anchor="end" font-family="ui-monospace,SFMono-Regular,Menlo,monospace" font-size="12" fill="#ff9955">$220.60</text>

  <text x="16" y="180" font-family="ui-monospace,SFMono-Regular,Menlo,monospace" font-size="11" fill="#8a8a95">protocol&#8217;s cost (cogs)</text>
  <text x="404" y="180" text-anchor="end" font-family="ui-monospace,SFMono-Regular,Menlo,monospace" font-size="12" fill="#e6e6e6">$51.49</text>

  <line x1="16" y1="190" x2="404" y2="190" stroke="#33333d"/>
  <text x="16" y="202" font-family="ui-monospace,SFMono-Regular,Menlo,monospace" font-size="11" fill="#8a8a95">paid calls</text>
  <text x="404" y="202" text-anchor="end" font-family="ui-monospace,SFMono-Regular,Menlo,monospace" font-size="11" fill="#e6e6e6">730</text>
  <text x="16" y="221" font-family="ui-monospace,SFMono-Regular,Menlo,monospace" font-size="11" fill="#8a8a95">repos scanned</text>
  <text x="404" y="221" text-anchor="end" font-family="ui-monospace,SFMono-Regular,Menlo,monospace" font-size="11" fill="#e6e6e6">9 / 34</text>
  <text x="16" y="240" font-family="ui-monospace,SFMono-Regular,Menlo,monospace" font-size="11" fill="#8a8a95">findings</text>
  <text x="404" y="240" text-anchor="end" font-family="ui-monospace,SFMono-Regular,Menlo,monospace" font-size="11" fill="#e6e6e6">3</text>
  <g transform="translate(0, 255)">
  <path d="M16.0,78.0 L22.5,78.0 L28.9,77.0 L35.4,76.2 L41.9,75.0 L48.3,74.9 L54.8,73.9 L61.3,77.7 L67.7,77.0 L74.2,76.1 L80.7,75.3 L87.1,74.1 L93.6,72.7 L100.1,71.4 L106.5,69.8 L113.0,67.9 L119.5,66.3 L125.9,64.3 L132.4,62.8 L138.9,61.1 L145.3,58.6 L151.8,55.9 L158.3,53.9 L164.7,52.6 L171.2,51.0 L177.7,49.9 L184.1,49.3 L190.6,46.4 L197.1,44.3 L203.5,42.1 L210.0,40.1 L216.5,38.8 L222.9,37.8 L229.4,36.0 L235.9,34.0 L242.3,31.8 L248.8,29.5 L255.3,28.6 L261.7,27.2 L268.2,27.1 L274.7,26.8 L281.1,24.9 L287.6,22.5 L294.1,20.0 L300.5,18.2 L307.0,16.6 L313.5,15.2 L319.9,13.3 L326.4,12.0 L332.9,12.0 L339.3,12.0 L345.8,12.0 L352.3,12.0 L358.7,12.0 L365.2,12.0 L371.7,12.0 L378.1,12.0 L384.6,12.0 L391.1,12.0 L397.5,12.0 L404.0,12.0 L404.0,54.9 L397.5,54.9 L391.1,54.9 L384.6,54.9 L378.1,54.9 L371.7,54.9 L365.2,54.9 L358.7,54.9 L352.3,54.9 L345.8,54.9 L339.3,54.9 L332.9,54.9 L326.4,54.9 L319.9,55.5 L313.5,56.2 L307.0,56.8 L300.5,57.4 L294.1,58.0 L287.6,58.7 L281.1,59.4 L274.7,60.0 L268.2,60.1 L261.7,60.1 L255.3,60.5 L248.8,60.8 L242.3,61.5 L235.9,62.2 L229.4,62.9 L222.9,63.6 L216.5,64.0 L210.0,64.5 L203.5,65.4 L197.1,66.3 L190.6,67.0 L184.1,67.7 L177.7,67.9 L171.2,68.2 L164.7,68.6 L158.3,68.9 L151.8,69.4 L145.3,70.0 L138.9,70.6 L132.4,71.1 L125.9,71.4 L119.5,72.0 L113.0,72.6 L106.5,73.3 L100.1,73.9 L93.6,74.5 L87.1,75.2 L80.7,75.9 L74.2,76.5 L67.7,77.2 L61.3,77.8 L54.8,75.5 L48.3,76.0 L41.9,76.1 L35.4,77.0 L28.9,77.7 L22.5,78.0 L16.0,78.0 Z" fill="#b8f22d" opacity="0.13"/>
  <path d="M16.0,78.0 L22.5,78.0 L28.9,77.0 L35.4,76.2 L41.9,75.0 L48.3,74.9 L54.8,73.9 L61.3,77.7 L67.7,77.0 L74.2,76.1 L80.7,75.3 L87.1,74.1 L93.6,72.7 L100.1,71.4 L106.5,69.8 L113.0,67.9 L119.5,66.3 L125.9,64.3 L132.4,62.8 L138.9,61.1 L145.3,58.6 L151.8,55.9 L158.3,53.9 L164.7,52.6 L171.2,51.0 L177.7,49.9 L184.1,49.3 L190.6,46.4 L197.1,44.3 L203.5,42.1 L210.0,40.1 L216.5,38.8 L222.9,37.8 L229.4,36.0 L235.9,34.0 L242.3,31.8 L248.8,29.5 L255.3,28.6 L261.7,27.2 L268.2,27.1 L274.7,26.8 L281.1,24.9 L287.6,22.5 L294.1,20.0 L300.5,18.2 L307.0,16.6 L313.5,15.2 L319.9,13.3 L326.4,12.0 L332.9,12.0 L339.3,12.0 L345.8,12.0 L352.3,12.0 L358.7,12.0 L365.2,12.0 L371.7,12.0 L378.1,12.0 L384.6,12.0 L391.1,12.0 L397.5,12.0 L404.0,12.0" fill="none" stroke="#ff9955" stroke-width="1.6"/>
  <path d="M16.0,78.0 L22.5,78.0 L28.9,77.7 L35.4,77.0 L41.9,76.1 L48.3,76.0 L54.8,75.5 L61.3,77.8 L67.7,77.2 L74.2,76.5 L80.7,75.9 L87.1,75.2 L93.6,74.5 L100.1,73.9 L106.5,73.3 L113.0,72.6 L119.5,72.0 L125.9,71.4 L132.4,71.1 L138.9,70.6 L145.3,70.0 L151.8,69.4 L158.3,68.9 L164.7,68.6 L171.2,68.2 L177.7,67.9 L184.1,67.7 L190.6,67.0 L197.1,66.3 L203.5,65.4 L210.0,64.5 L216.5,64.0 L222.9,63.6 L229.4,62.9 L235.9,62.2 L242.3,61.5 L248.8,60.8 L255.3,60.5 L261.7,60.1 L268.2,60.1 L274.7,60.0 L281.1,59.4 L287.6,58.7 L294.1,58.0 L300.5,57.4 L307.0,56.8 L313.5,56.2 L319.9,55.5 L326.4,54.9 L332.9,54.9 L339.3,54.9 L345.8,54.9 L352.3,54.9 L358.7,54.9 L365.2,54.9 L371.7,54.9 L378.1,54.9 L384.6,54.9 L391.1,54.9 L397.5,54.9 L404.0,54.9" fill="none" stroke="#b8f22d" stroke-width="1.6"/>
  <text x="16" y="95" font-family="ui-monospace,SFMono-Regular,Menlo,monospace" font-size="9.5" fill="#8a8a95">61 samples · the shaded gap is what leCore saved</text>
  </g>
</svg>
