<svg xmlns="http://www.w3.org/2000/svg" width="420" height="377" role="img" aria-label="OPENZOO · THIS REPO’S SECURITY SCAN">
  <rect width="420" height="377" rx="10" fill="#0e0e11"/>
  <rect width="420" height="377" rx="10" fill="none" stroke="#33333d"/>

  <text x="16" y="26" font-family="ui-monospace,SFMono-Regular,Menlo,monospace" font-size="11" fill="#b8f22d" letter-spacing="0.06em">OPENZOO · THIS REPO’S SECURITY SCAN</text>

  <text x="16" y="62" font-family="ui-monospace,SFMono-Regular,Menlo,monospace" font-size="26" font-weight="600" fill="#b8f22d">saved $61.57</text>
  <text x="404" y="62" text-anchor="end" font-family="ui-monospace,SFMono-Regular,Menlo,monospace" font-size="26" font-weight="600" fill="#b8f22d">2.80x</text>
  <text x="16" y="84" font-family="ui-monospace,SFMono-Regular,Menlo,monospace" font-size="10.5" fill="#8a8a95">vs buying the same tokens direct</text>

  <rect x="16" y="108" width="139" height="18" rx="3" fill="#b8f22d" opacity="0.85"/>
  <text x="22" y="121" font-family="ui-monospace,SFMono-Regular,Menlo,monospace" font-size="11" fill="#0e0e11" font-weight="600">dev spent</text>
  <text x="404" y="121" text-anchor="end" font-family="ui-monospace,SFMono-Regular,Menlo,monospace" font-size="12" fill="#e6e6e6">$34.27</text>

  <rect x="16" y="134" width="388" height="18" rx="3" fill="#ff9955" opacity="0.85"/>
  <text x="22" y="147" font-family="ui-monospace,SFMono-Regular,Menlo,monospace" font-size="11" fill="#0e0e11" font-weight="600">buying direct</text>
  <text x="404" y="147" text-anchor="end" font-family="ui-monospace,SFMono-Regular,Menlo,monospace" font-size="12" fill="#ff9955">$95.84</text>

  <text x="16" y="180" font-family="ui-monospace,SFMono-Regular,Menlo,monospace" font-size="11" fill="#8a8a95">protocol&#8217;s cost (cogs)</text>
  <text x="404" y="180" text-anchor="end" font-family="ui-monospace,SFMono-Regular,Menlo,monospace" font-size="12" fill="#e6e6e6">$22.81</text>

  <line x1="16" y1="190" x2="404" y2="190" stroke="#33333d"/>
  <text x="16" y="202" font-family="ui-monospace,SFMono-Regular,Menlo,monospace" font-size="11" fill="#8a8a95">paid calls</text>
  <text x="404" y="202" text-anchor="end" font-family="ui-monospace,SFMono-Regular,Menlo,monospace" font-size="11" fill="#e6e6e6">313</text>
  <text x="16" y="221" font-family="ui-monospace,SFMono-Regular,Menlo,monospace" font-size="11" fill="#8a8a95">repos scanned</text>
  <text x="404" y="221" text-anchor="end" font-family="ui-monospace,SFMono-Regular,Menlo,monospace" font-size="11" fill="#e6e6e6">0 / 34</text>
  <text x="16" y="240" font-family="ui-monospace,SFMono-Regular,Menlo,monospace" font-size="11" fill="#8a8a95">findings</text>
  <text x="404" y="240" text-anchor="end" font-family="ui-monospace,SFMono-Regular,Menlo,monospace" font-size="11" fill="#e6e6e6">1</text>
  <g transform="translate(0, 255)">
  <path d="M16.0,78.0 L30.9,78.0 L45.8,75.7 L60.8,73.8 L75.7,71.1 L90.6,70.9 L105.5,68.6 L120.5,77.2 L135.4,75.7 L150.3,73.7 L165.2,71.7 L180.2,69.1 L195.1,65.9 L210.0,62.8 L224.9,59.1 L239.8,54.8 L254.8,51.1 L269.7,46.6 L284.6,43.0 L299.5,39.0 L314.5,33.4 L329.4,27.2 L344.3,22.6 L359.2,19.5 L374.2,15.8 L389.1,13.4 L404.0,12.0 L404.0,54.4 L389.1,54.8 L374.2,55.5 L359.2,56.4 L344.3,57.1 L329.4,58.2 L314.5,59.6 L299.5,61.0 L284.6,62.0 L269.7,62.9 L254.8,64.2 L239.8,65.5 L224.9,67.1 L210.0,68.6 L195.1,70.0 L180.2,71.6 L165.2,73.2 L150.3,74.5 L135.4,76.1 L120.5,77.7 L105.5,72.1 L90.6,73.5 L75.7,73.6 L60.8,75.7 L45.8,77.4 L30.9,78.0 L16.0,78.0 Z" fill="#b8f22d" opacity="0.13"/>
  <path d="M16.0,78.0 L30.9,78.0 L45.8,75.7 L60.8,73.8 L75.7,71.1 L90.6,70.9 L105.5,68.6 L120.5,77.2 L135.4,75.7 L150.3,73.7 L165.2,71.7 L180.2,69.1 L195.1,65.9 L210.0,62.8 L224.9,59.1 L239.8,54.8 L254.8,51.1 L269.7,46.6 L284.6,43.0 L299.5,39.0 L314.5,33.4 L329.4,27.2 L344.3,22.6 L359.2,19.5 L374.2,15.8 L389.1,13.4 L404.0,12.0" fill="none" stroke="#ff9955" stroke-width="1.6"/>
  <path d="M16.0,78.0 L30.9,78.0 L45.8,77.4 L60.8,75.7 L75.7,73.6 L90.6,73.5 L105.5,72.1 L120.5,77.7 L135.4,76.1 L150.3,74.5 L165.2,73.2 L180.2,71.6 L195.1,70.0 L210.0,68.6 L224.9,67.1 L239.8,65.5 L254.8,64.2 L269.7,62.9 L284.6,62.0 L299.5,61.0 L314.5,59.6 L329.4,58.2 L344.3,57.1 L359.2,56.4 L374.2,55.5 L389.1,54.8 L404.0,54.4" fill="none" stroke="#b8f22d" stroke-width="1.6"/>
  <text x="16" y="95" font-family="ui-monospace,SFMono-Regular,Menlo,monospace" font-size="9.5" fill="#8a8a95">27 samples · the shaded gap is what leCore saved</text>
  </g>
</svg>
