<svg xmlns="http://www.w3.org/2000/svg" width="420" height="377" role="img" aria-label="OPENZOO · THIS REPO’S SECURITY SCAN">
  <rect width="420" height="377" rx="10" fill="#0e0e11"/>
  <rect width="420" height="377" rx="10" fill="none" stroke="#33333d"/>

  <text x="16" y="26" font-family="ui-monospace,SFMono-Regular,Menlo,monospace" font-size="11" fill="#b8f22d" letter-spacing="0.06em">OPENZOO · THIS REPO’S SECURITY SCAN</text>

  <text x="16" y="62" font-family="ui-monospace,SFMono-Regular,Menlo,monospace" font-size="26" font-weight="600" fill="#b8f22d">saved $60.11</text>
  <text x="404" y="62" text-anchor="end" font-family="ui-monospace,SFMono-Regular,Menlo,monospace" font-size="26" font-weight="600" fill="#b8f22d">2.78x</text>
  <text x="16" y="84" font-family="ui-monospace,SFMono-Regular,Menlo,monospace" font-size="10.5" fill="#8a8a95">vs buying the same tokens direct</text>

  <rect x="16" y="108" width="139" height="18" rx="3" fill="#b8f22d" opacity="0.85"/>
  <text x="22" y="121" font-family="ui-monospace,SFMono-Regular,Menlo,monospace" font-size="11" fill="#0e0e11" font-weight="600">dev spent</text>
  <text x="404" y="121" text-anchor="end" font-family="ui-monospace,SFMono-Regular,Menlo,monospace" font-size="12" fill="#e6e6e6">$33.68</text>

  <rect x="16" y="134" width="388" height="18" rx="3" fill="#ff9955" opacity="0.85"/>
  <text x="22" y="147" font-family="ui-monospace,SFMono-Regular,Menlo,monospace" font-size="11" fill="#0e0e11" font-weight="600">buying direct</text>
  <text x="404" y="147" text-anchor="end" font-family="ui-monospace,SFMono-Regular,Menlo,monospace" font-size="12" fill="#ff9955">$93.79</text>

  <text x="16" y="180" font-family="ui-monospace,SFMono-Regular,Menlo,monospace" font-size="11" fill="#8a8a95">protocol&#8217;s cost (cogs)</text>
  <text x="404" y="180" text-anchor="end" font-family="ui-monospace,SFMono-Regular,Menlo,monospace" font-size="12" fill="#e6e6e6">$22.41</text>

  <line x1="16" y1="190" x2="404" y2="190" stroke="#33333d"/>
  <text x="16" y="202" font-family="ui-monospace,SFMono-Regular,Menlo,monospace" font-size="11" fill="#8a8a95">paid calls</text>
  <text x="404" y="202" text-anchor="end" font-family="ui-monospace,SFMono-Regular,Menlo,monospace" font-size="11" fill="#e6e6e6">307</text>
  <text x="16" y="221" font-family="ui-monospace,SFMono-Regular,Menlo,monospace" font-size="11" fill="#8a8a95">repos scanned</text>
  <text x="404" y="221" text-anchor="end" font-family="ui-monospace,SFMono-Regular,Menlo,monospace" font-size="11" fill="#e6e6e6">0 / 34</text>
  <text x="16" y="240" font-family="ui-monospace,SFMono-Regular,Menlo,monospace" font-size="11" fill="#8a8a95">findings</text>
  <text x="404" y="240" text-anchor="end" font-family="ui-monospace,SFMono-Regular,Menlo,monospace" font-size="11" fill="#e6e6e6">1</text>
  <g transform="translate(0, 255)">
  <path d="M16.0,78.0 L31.5,78.0 L47.0,75.6 L62.6,73.8 L78.1,70.9 L93.6,70.7 L109.1,68.4 L124.6,77.2 L140.2,75.7 L155.7,73.6 L171.2,71.6 L186.7,68.9 L202.2,65.6 L217.8,62.5 L233.3,58.7 L248.8,54.3 L264.3,50.5 L279.8,45.9 L295.4,42.3 L310.9,38.2 L326.4,32.4 L341.9,26.0 L357.4,21.4 L373.0,18.2 L388.5,14.5 L404.0,12.0 L404.0,54.3 L388.5,55.0 L373.0,55.9 L357.4,56.6 L341.9,57.8 L326.4,59.2 L310.9,60.6 L295.4,61.7 L279.8,62.6 L264.3,63.9 L248.8,65.2 L233.3,66.9 L217.8,68.4 L202.2,69.8 L186.7,71.5 L171.2,73.1 L155.7,74.4 L140.2,76.1 L124.6,77.6 L109.1,72.0 L93.6,73.4 L78.1,73.5 L62.6,75.7 L47.0,77.4 L31.5,78.0 L16.0,78.0 Z" fill="#b8f22d" opacity="0.13"/>
  <path d="M16.0,78.0 L31.5,78.0 L47.0,75.6 L62.6,73.8 L78.1,70.9 L93.6,70.7 L109.1,68.4 L124.6,77.2 L140.2,75.7 L155.7,73.6 L171.2,71.6 L186.7,68.9 L202.2,65.6 L217.8,62.5 L233.3,58.7 L248.8,54.3 L264.3,50.5 L279.8,45.9 L295.4,42.3 L310.9,38.2 L326.4,32.4 L341.9,26.0 L357.4,21.4 L373.0,18.2 L388.5,14.5 L404.0,12.0" fill="none" stroke="#ff9955" stroke-width="1.6"/>
  <path d="M16.0,78.0 L31.5,78.0 L47.0,77.4 L62.6,75.7 L78.1,73.5 L93.6,73.4 L109.1,72.0 L124.6,77.6 L140.2,76.1 L155.7,74.4 L171.2,73.1 L186.7,71.5 L202.2,69.8 L217.8,68.4 L233.3,66.9 L248.8,65.2 L264.3,63.9 L279.8,62.6 L295.4,61.7 L310.9,60.6 L326.4,59.2 L341.9,57.8 L357.4,56.6 L373.0,55.9 L388.5,55.0 L404.0,54.3" fill="none" stroke="#b8f22d" stroke-width="1.6"/>
  <text x="16" y="95" font-family="ui-monospace,SFMono-Regular,Menlo,monospace" font-size="9.5" fill="#8a8a95">26 samples · the shaded gap is what leCore saved</text>
  </g>
</svg>
