<svg xmlns="http://www.w3.org/2000/svg" width="420" height="377" role="img" aria-label="OPENZOO · THIS REPO’S SECURITY SCAN">
  <rect width="420" height="377" rx="10" fill="#0e0e11"/>
  <rect width="420" height="377" rx="10" fill="none" stroke="#33333d"/>

  <text x="16" y="26" font-family="ui-monospace,SFMono-Regular,Menlo,monospace" font-size="11" fill="#b8f22d" letter-spacing="0.06em">OPENZOO · THIS REPO’S SECURITY SCAN</text>

  <text x="16" y="62" font-family="ui-monospace,SFMono-Regular,Menlo,monospace" font-size="26" font-weight="600" fill="#b8f22d">saved $94.15</text>
  <text x="404" y="62" text-anchor="end" font-family="ui-monospace,SFMono-Regular,Menlo,monospace" font-size="26" font-weight="600" fill="#b8f22d">2.78x</text>
  <text x="16" y="84" font-family="ui-monospace,SFMono-Regular,Menlo,monospace" font-size="10.5" fill="#8a8a95">vs buying the same tokens direct</text>

  <rect x="16" y="108" width="139" height="18" rx="3" fill="#b8f22d" opacity="0.85"/>
  <text x="22" y="121" font-family="ui-monospace,SFMono-Regular,Menlo,monospace" font-size="11" fill="#0e0e11" font-weight="600">dev spent</text>
  <text x="404" y="121" text-anchor="end" font-family="ui-monospace,SFMono-Regular,Menlo,monospace" font-size="12" fill="#e6e6e6">$52.79</text>

  <rect x="16" y="134" width="388" height="18" rx="3" fill="#ff9955" opacity="0.85"/>
  <text x="22" y="147" font-family="ui-monospace,SFMono-Regular,Menlo,monospace" font-size="11" fill="#0e0e11" font-weight="600">buying direct</text>
  <text x="404" y="147" text-anchor="end" font-family="ui-monospace,SFMono-Regular,Menlo,monospace" font-size="12" fill="#ff9955">$146.94</text>

  <text x="16" y="180" font-family="ui-monospace,SFMono-Regular,Menlo,monospace" font-size="11" fill="#8a8a95">protocol&#8217;s cost (cogs)</text>
  <text x="404" y="180" text-anchor="end" font-family="ui-monospace,SFMono-Regular,Menlo,monospace" font-size="12" fill="#e6e6e6">$35.15</text>

  <line x1="16" y1="190" x2="404" y2="190" stroke="#33333d"/>
  <text x="16" y="202" font-family="ui-monospace,SFMono-Regular,Menlo,monospace" font-size="11" fill="#8a8a95">paid calls</text>
  <text x="404" y="202" text-anchor="end" font-family="ui-monospace,SFMono-Regular,Menlo,monospace" font-size="11" fill="#e6e6e6">501</text>
  <text x="16" y="221" font-family="ui-monospace,SFMono-Regular,Menlo,monospace" font-size="11" fill="#8a8a95">repos scanned</text>
  <text x="404" y="221" text-anchor="end" font-family="ui-monospace,SFMono-Regular,Menlo,monospace" font-size="11" fill="#e6e6e6">1 / 34</text>
  <text x="16" y="240" font-family="ui-monospace,SFMono-Regular,Menlo,monospace" font-size="11" fill="#8a8a95">findings</text>
  <text x="404" y="240" text-anchor="end" font-family="ui-monospace,SFMono-Regular,Menlo,monospace" font-size="11" fill="#e6e6e6">1</text>
  <g transform="translate(0, 255)">
  <path d="M16.0,78.0 L27.4,78.0 L38.8,76.5 L50.2,75.3 L61.6,73.5 L73.1,73.4 L84.5,71.9 L95.9,77.5 L107.3,76.5 L118.7,75.2 L130.1,73.9 L141.5,72.2 L152.9,70.1 L164.4,68.1 L175.8,65.7 L187.2,62.9 L198.6,60.4 L210.0,57.5 L221.4,55.2 L232.8,52.6 L244.2,48.9 L255.6,44.8 L267.1,41.8 L278.5,39.8 L289.9,37.5 L301.3,35.9 L312.7,35.0 L324.1,30.6 L335.5,27.4 L346.9,24.1 L358.4,21.1 L369.8,19.1 L381.2,17.6 L392.6,15.0 L404.0,12.0 L404.0,54.3 L392.6,55.3 L381.2,56.4 L369.8,56.9 L358.4,57.7 L346.9,59.1 L335.5,60.4 L324.1,61.4 L312.7,62.6 L301.3,62.9 L289.9,63.3 L278.5,63.9 L267.1,64.4 L255.6,65.1 L244.2,66.0 L232.8,66.9 L221.4,67.6 L210.0,68.1 L198.6,69.0 L187.2,69.8 L175.8,70.9 L164.4,71.9 L152.9,72.8 L141.5,73.8 L130.1,74.9 L118.7,75.7 L107.3,76.8 L95.9,77.8 L84.5,74.2 L73.1,75.1 L61.6,75.1 L50.2,76.5 L38.8,77.6 L27.4,78.0 L16.0,78.0 Z" fill="#b8f22d" opacity="0.13"/>
  <path d="M16.0,78.0 L27.4,78.0 L38.8,76.5 L50.2,75.3 L61.6,73.5 L73.1,73.4 L84.5,71.9 L95.9,77.5 L107.3,76.5 L118.7,75.2 L130.1,73.9 L141.5,72.2 L152.9,70.1 L164.4,68.1 L175.8,65.7 L187.2,62.9 L198.6,60.4 L210.0,57.5 L221.4,55.2 L232.8,52.6 L244.2,48.9 L255.6,44.8 L267.1,41.8 L278.5,39.8 L289.9,37.5 L301.3,35.9 L312.7,35.0 L324.1,30.6 L335.5,27.4 L346.9,24.1 L358.4,21.1 L369.8,19.1 L381.2,17.6 L392.6,15.0 L404.0,12.0" fill="none" stroke="#ff9955" stroke-width="1.6"/>
  <path d="M16.0,78.0 L27.4,78.0 L38.8,77.6 L50.2,76.5 L61.6,75.1 L73.1,75.1 L84.5,74.2 L95.9,77.8 L107.3,76.8 L118.7,75.7 L130.1,74.9 L141.5,73.8 L152.9,72.8 L164.4,71.9 L175.8,70.9 L187.2,69.8 L198.6,69.0 L210.0,68.1 L221.4,67.6 L232.8,66.9 L244.2,66.0 L255.6,65.1 L267.1,64.4 L278.5,63.9 L289.9,63.3 L301.3,62.9 L312.7,62.6 L324.1,61.4 L335.5,60.4 L346.9,59.1 L358.4,57.7 L369.8,56.9 L381.2,56.4 L392.6,55.3 L404.0,54.3" fill="none" stroke="#b8f22d" stroke-width="1.6"/>
  <text x="16" y="95" font-family="ui-monospace,SFMono-Regular,Menlo,monospace" font-size="9.5" fill="#8a8a95">35 samples · the shaded gap is what leCore saved</text>
  </g>
</svg>
